<svg xmlns="http://www.w3.org/2000/svg" width="18" height="17" viewBox="0 0 18 17" fill="none">
  <g clip-path="url(#clip0_86_2694)">
    <path fill-rule="evenodd" clip-rule="evenodd" d="M8.99973 1.48828C7.13953 1.48828 5.35552 2.22724 4.04016 3.5426C2.7248 4.85796 1.98584 6.64197 1.98584 8.50217C1.98584 9.54073 1.9997 11.4478 2.0136 13.0976C2.02054 13.922 2.02748 14.6813 2.03269 15.2346L2.03538 15.5161H8.99973C10.8599 15.5161 12.6439 14.7771 13.9593 13.4617C15.2747 12.1464 16.0136 10.3624 16.0136 8.50217C16.0136 6.64197 15.2747 4.85796 13.9593 3.5426C12.6439 2.22724 10.8599 1.48828 8.99973 1.48828ZM0.791427 16.1473C0.794854 16.49 1.07366 16.7661 1.4164 16.7661H8.99973C11.1914 16.7661 13.2934 15.8954 14.8432 14.3456C16.393 12.7958 17.2636 10.6939 17.2636 8.50217C17.2636 6.31045 16.393 4.2085 14.8432 2.65872C13.2934 1.10894 11.1914 0.238281 8.99973 0.238281C6.80801 0.238281 4.70606 1.10894 3.15628 2.65872C1.6065 4.2085 0.73584 6.31045 0.73584 8.50217C0.73584 9.54694 0.749755 11.4594 0.76364 13.1081C0.770586 13.933 0.777533 14.6928 0.782742 15.2463L0.791427 16.1473Z" fill="current"/>
    <path fill-rule="evenodd" clip-rule="evenodd" d="M4.6709 5.95312C4.6709 5.60795 4.95072 5.32812 5.2959 5.32812H12.7033C13.0485 5.32812 13.3283 5.60795 13.3283 5.95312C13.3283 6.2983 13.0485 6.57812 12.7033 6.57812H5.2959C4.95072 6.57812 4.6709 6.2983 4.6709 5.95312Z" fill="current"/>
    <path fill-rule="evenodd" clip-rule="evenodd" d="M4.6709 8.5C4.6709 8.15482 4.95072 7.875 5.2959 7.875H9.93479C10.28 7.875 10.5598 8.15482 10.5598 8.5C10.5598 8.84518 10.28 9.125 9.93479 9.125H5.2959C4.95072 9.125 4.6709 8.84518 4.6709 8.5Z" fill="current"/>
    <path fill-rule="evenodd" clip-rule="evenodd" d="M4.6709 11.0469C4.6709 10.7017 4.95072 10.4219 5.2959 10.4219H11.2218C11.567 10.4219 11.8468 10.7017 11.8468 11.0469C11.8468 11.3921 11.567 11.6719 11.2218 11.6719H5.2959C4.95072 11.6719 4.6709 11.3921 4.6709 11.0469Z" fill="current"/>
  </g>
  <defs>
    <clipPath id="clip0_86_2694">
      <rect width="16.6667" height="16.6667" fill="current" transform="translate(0.666504 0.167969)"/>
    </clipPath>
  </defs>
</svg>