<svg xmlns="http://www.w3.org/2000/svg" width="20" height="20" viewBox="0 0 20 20" fill="none">
  <path opacity="0.3" d="M9.99999 18.3346C5.39762 18.3346 1.66666 14.6037 1.66666 10.0013C1.66666 5.39893 5.39762 1.66797 9.99999 1.66797C14.6024 1.66797 18.3333 5.39893 18.3333 10.0013C18.3333 14.6037 14.6024 18.3346 9.99999 18.3346Z" fill="#AFAFAF"/>
  <path d="M7.76873 6.21936C7.48978 5.94042 7.48978 5.48816 7.76873 5.20921C8.04767 4.93026 8.49993 4.93026 8.77888 5.20921L13.0646 9.49492C13.335 9.76534 13.3445 10.2008 13.0861 10.4827L9.15748 14.7684C8.89092 15.0592 8.43908 15.0788 8.14829 14.8123C7.85749 14.5457 7.83784 14.0939 8.10441 13.8031L11.5708 10.0215L7.76873 6.21936Z" fill="#AFAFAF"/>
</svg>