<svg xmlns="http://www.w3.org/2000/svg" width="36" height="36" viewBox="0 0 36 36" fill="none">
  <path d="M3 18C3 9.71573 9.71573 3 18 3C26.2843 3 33 9.71573 33 18C33 26.2843 26.2843 33 18 33C9.71573 33 3 26.2843 3 18Z" fill="#191919"/>
  <path fill-rule="evenodd" clip-rule="evenodd" d="M19.4467 19.4451L25.4467 19.4451C26.2751 19.4451 26.9467 18.7735 26.9467 17.9451C26.9467 17.1167 26.2751 16.4451 25.4467 16.4451L19.4467 16.4451L19.4467 10.4451C19.4467 9.61666 18.7751 8.94508 17.9467 8.94508C17.1183 8.94508 16.4467 9.61666 16.4467 10.4451L16.4467 16.4451L10.4467 16.4451C9.61827 16.4451 8.9467 17.1167 8.9467 17.9451C8.9467 18.7735 9.61827 19.4451 10.4467 19.4451L16.4467 19.4451L16.4467 25.4451C16.4467 26.2735 17.1183 26.9451 17.9467 26.9451C18.7751 26.9451 19.4467 26.2735 19.4467 25.4451L19.4467 19.4451Z" fill="#D2FA63"/>
</svg>