<svg width="107" height="40" viewBox="0 0 107 40" fill="none" xmlns="http://www.w3.org/2000/svg">
<rect x="1.06104" y="1.07031" width="105.439" height="37.8604" rx="18.9302" stroke="white"/>
<path d="M24.2806 8.57031C17.8089 8.57031 12.561 13.8172 12.561 20.2898C12.561 25.4679 15.919 29.8609 20.5756 31.4105C21.1613 31.519 21.3763 31.1563 21.3763 30.8467C21.3763 30.5673 21.3654 29.644 21.3604 28.6648C18.1 29.3737 17.412 27.282 17.412 27.282C16.8789 25.9274 16.1108 25.5673 16.1108 25.5673C15.0475 24.8399 16.1909 24.8548 16.1909 24.8548C17.3678 24.9375 17.9875 26.0625 17.9875 26.0625C19.0327 27.8542 20.7291 27.3362 21.3979 27.0368C21.503 26.2792 21.8068 25.7623 22.1419 25.4697C19.5389 25.1732 16.8024 24.1683 16.8024 19.6778C16.8024 18.3983 17.2602 17.3528 18.01 16.5321C17.8883 16.2369 17.4872 15.0449 18.1235 13.4306C18.1235 13.4306 19.1076 13.1157 21.3472 14.632C22.282 14.3722 23.2846 14.2421 24.2806 14.2377C25.2765 14.2421 26.2799 14.3722 27.2165 14.632C29.4534 13.1157 30.4361 13.4306 30.4361 13.4306C31.074 15.0449 30.6727 16.2369 30.551 16.5321C31.3024 17.3528 31.7571 18.3982 31.7571 19.6778C31.7571 24.179 29.0155 25.1702 26.4059 25.4603C26.8262 25.824 27.2008 26.5372 27.2008 27.6306C27.2008 29.1986 27.1872 30.4607 27.1872 30.8467C27.1872 31.1586 27.3981 31.524 27.9922 31.409C32.6462 29.8576 36 25.4662 36 20.2898C36 13.8172 30.7529 8.57031 24.2806 8.57031Z" fill="white"/>
<path d="M16.9502 25.2651C16.9245 25.3233 16.8328 25.3408 16.7494 25.3009C16.6644 25.2627 16.6166 25.1832 16.6442 25.1248C16.6694 25.0649 16.7612 25.0481 16.846 25.0884C16.9312 25.1265 16.9797 25.2067 16.9502 25.2651M17.5267 25.7795C17.4708 25.8313 17.3616 25.8072 17.2874 25.7254C17.2107 25.6436 17.1964 25.5344 17.2531 25.4818C17.3107 25.43 17.4167 25.4542 17.4935 25.536C17.5702 25.6186 17.5851 25.7272 17.5266 25.7796M17.9222 26.4376C17.8504 26.4875 17.7329 26.4407 17.6604 26.3365C17.5886 26.2324 17.5886 26.1073 17.6619 26.0573C17.7347 26.0072 17.8504 26.0522 17.9239 26.1556C17.9956 26.2616 17.9956 26.3866 17.9221 26.4377M18.591 27.1998C18.5268 27.2706 18.39 27.2517 18.2898 27.155C18.1874 27.0605 18.1588 26.9264 18.2233 26.8555C18.2882 26.7846 18.4258 26.8045 18.5268 26.9004C18.6285 26.9947 18.6596 27.1298 18.5911 27.1998M19.4554 27.4572C19.4271 27.5489 19.2953 27.5907 19.1626 27.5517C19.0301 27.5115 18.9433 27.404 18.9701 27.3112C18.9976 27.2189 19.13 27.1754 19.2637 27.2171C19.3961 27.2571 19.483 27.3638 19.4555 27.4572M20.4392 27.5663C20.4425 27.663 20.3299 27.7431 20.1906 27.7449C20.0504 27.7479 19.9371 27.6697 19.9356 27.5747C19.9356 27.4771 20.0456 27.3976 20.1857 27.3953C20.3251 27.3926 20.4392 27.4703 20.4392 27.5663M21.4056 27.5293C21.4223 27.6236 21.3255 27.7204 21.1871 27.7462C21.0511 27.771 20.9252 27.7128 20.9078 27.6193C20.8909 27.5226 20.9896 27.4259 21.1254 27.4008C21.264 27.3767 21.388 27.4334 21.4056 27.5293" fill="white"/>
<path d="M51.2344 21.498H49.7402V14.4258H51.2344V21.498ZM48.0058 15.2051C48.0058 16.166 47.8164 17.0273 47.4375 17.7891C47.0625 18.5469 46.5019 19.2012 45.7558 19.752C45.0137 20.2988 44.0976 20.7344 43.0078 21.0586L42.4394 19.8633C43.334 19.6133 44.0801 19.293 44.6777 18.9023C45.2793 18.5078 45.7246 18.0586 46.0137 17.5547C46.3066 17.0469 46.4531 16.4902 46.4531 15.8848V15.2051H48.0058ZM47.4082 16.4062H43.043V15.2051H47.4082V16.4062ZM48.1055 21.1875C48.1055 21.8359 47.9453 22.4277 47.625 22.9629C47.3047 23.4941 46.8379 23.9395 46.2246 24.2988C45.6152 24.6621 44.8828 24.9141 44.0273 25.0547L43.4473 23.877C44.1777 23.7754 44.7969 23.5898 45.3047 23.3203C45.8164 23.0469 46.1992 22.7266 46.4531 22.3594C46.707 21.9883 46.834 21.5977 46.834 21.1875V20.8125H48.1055V21.1875ZM48.3984 21.1875C48.3984 21.6016 48.5234 21.9941 48.7734 22.3652C49.0234 22.7324 49.4023 23.0488 49.9101 23.3145C50.4219 23.5801 51.0449 23.7676 51.7793 23.877L51.2109 25.0547C50.3476 24.9141 49.6094 24.6621 48.9961 24.2988C48.3828 23.9395 47.916 23.4941 47.5957 22.9629C47.2793 22.4277 47.1211 21.8359 47.1211 21.1875V20.8125H48.3984V21.1875ZM58.5805 17.2031H52.3109V16.002H58.5805V17.2031ZM55.4398 17.7949C55.9242 17.7949 56.3598 17.9043 56.7465 18.123C57.1371 18.3418 57.4437 18.6465 57.6664 19.0371C57.889 19.4238 58.0004 19.8574 58.0004 20.3379C58.0004 20.8145 57.889 21.2461 57.6664 21.6328C57.4437 22.0195 57.1371 22.3242 56.7465 22.5469C56.3558 22.7695 55.9203 22.8809 55.4398 22.8809C54.9594 22.8809 54.5219 22.7695 54.1273 22.5469C53.7367 22.3242 53.4281 22.0195 53.2015 21.6328C52.9789 21.2461 52.8676 20.8145 52.8676 20.3379C52.8676 19.8574 52.9789 19.4238 53.2015 19.0371C53.4281 18.6465 53.7367 18.3418 54.1273 18.123C54.518 17.9043 54.9555 17.7949 55.4398 17.7949ZM55.4398 19.0605C55.2172 19.0605 55.014 19.1133 54.8305 19.2188C54.6508 19.3242 54.5101 19.4746 54.4086 19.6699C54.3109 19.8613 54.2621 20.084 54.2621 20.3379C54.2621 20.5996 54.3109 20.8281 54.4086 21.0234C54.5101 21.2188 54.6508 21.3672 54.8305 21.4688C55.014 21.5664 55.2172 21.6152 55.4398 21.6152C55.6703 21.6152 55.8734 21.5664 56.0492 21.4688C56.2289 21.3672 56.3695 21.2188 56.4711 21.0234C56.5726 20.8281 56.6234 20.5996 56.6234 20.3379C56.6234 20.084 56.5726 19.8613 56.4711 19.6699C56.3695 19.4746 56.2289 19.3242 56.0492 19.2188C55.8734 19.1133 55.6703 19.0605 55.4398 19.0605ZM56.184 16.6113H54.684V14.5723H56.184V16.6113ZM61.2875 25.0781H59.8051V14.4023H61.2875V25.0781ZM61.0062 19.8457H58.3637V18.627H61.0062V19.8457ZM72.0144 23.7891H62.2644V22.5762H72.0144V23.7891ZM64.7957 16.8574H69.4422V15.0938H70.9305V20.7891H63.2957V15.0938H64.7957V16.8574ZM69.4422 19.6172V18.0234H64.7957V19.6172H69.4422ZM82.6402 17.1152H79.4762V15.9141H82.6402V17.1152ZM82.6402 19.6934H79.4762V18.498H82.6402V19.6934ZM83.5953 22.2246H82.107V14.4258H83.5953V22.2246ZM83.8531 24.8965H76.5172V23.6895H83.8531V24.8965ZM78.0172 24.3047H76.5172V21.4336H78.0172V24.3047ZM77.5836 15.041C78.1031 15.041 78.5758 15.1621 79.0015 15.4043C79.4312 15.6426 79.773 15.9727 80.0269 16.3945C80.2808 16.8125 80.4078 17.2852 80.4078 17.8125C80.4078 18.332 80.2808 18.8008 80.0269 19.2188C79.773 19.6367 79.4312 19.9668 79.0015 20.209C78.5719 20.4473 78.0992 20.5664 77.5836 20.5664C77.0484 20.5664 76.564 20.4473 76.1305 20.209C75.7008 19.9668 75.3609 19.6367 75.1109 19.2188C74.8648 18.8008 74.7418 18.332 74.7418 17.8125C74.7418 17.2852 74.8648 16.8105 75.1109 16.3887C75.3609 15.9668 75.7008 15.6367 76.1305 15.3984C76.564 15.1602 77.0484 15.041 77.5836 15.041ZM77.5836 16.3711C77.3062 16.3672 77.0601 16.4238 76.8453 16.541C76.6305 16.6543 76.4625 16.8203 76.3414 17.0391C76.2203 17.2578 76.1598 17.5156 76.1598 17.8125C76.1598 18.1016 76.2203 18.3535 76.3414 18.5684C76.4625 18.7832 76.6305 18.9492 76.8453 19.0664C77.0601 19.1797 77.3062 19.2383 77.5836 19.2422C77.8453 19.2383 78.0816 19.1797 78.2926 19.0664C78.5074 18.9492 78.6754 18.7832 78.7965 18.5684C78.9176 18.3535 78.9781 18.1016 78.9781 17.8125C78.9781 17.5156 78.9176 17.2578 78.7965 17.0391C78.6754 16.8203 78.5074 16.6543 78.2926 16.541C78.0816 16.4238 77.8453 16.3672 77.5836 16.3711ZM94.3281 20.6309H84.584V19.4473H94.3281V20.6309ZM90.1855 19.916H88.7207V17.8418H90.1855V19.916ZM93.2148 18.5332H85.7617V17.3613H93.2148V18.5332ZM93.1562 16.0488H87.2441V18.1289H85.7617V14.8828H93.1562V16.0488ZM89.4297 21.1582C90.2031 21.1582 90.8672 21.2344 91.4219 21.3867C91.9805 21.5391 92.4062 21.7637 92.6992 22.0605C92.9961 22.3574 93.1445 22.7148 93.1445 23.1328C93.1445 23.5469 92.9961 23.9004 92.6992 24.1934C92.4062 24.4863 91.9805 24.709 91.4219 24.8613C90.8672 25.0137 90.2031 25.0918 89.4297 25.0957C88.6562 25.0918 87.9883 25.0137 87.4258 24.8613C86.8672 24.709 86.4375 24.4863 86.1367 24.1934C85.8398 23.9004 85.6914 23.5469 85.6914 23.1328C85.6914 22.7148 85.8398 22.3574 86.1367 22.0605C86.4375 21.7637 86.8672 21.5391 87.4258 21.3867C87.9844 21.2344 88.6523 21.1582 89.4297 21.1582ZM89.4297 22.3008C88.9375 22.3008 88.5273 22.332 88.1992 22.3945C87.8711 22.4531 87.625 22.5449 87.4609 22.6699C87.2969 22.7949 87.2148 22.9492 87.2148 23.1328C87.2148 23.3203 87.2969 23.4746 87.4609 23.5957C87.625 23.7168 87.8691 23.8066 88.1933 23.8652C88.5215 23.9238 88.9336 23.9531 89.4297 23.9531C89.9219 23.9531 90.3301 23.9238 90.6543 23.8652C90.9824 23.8066 91.2285 23.7168 91.3926 23.5957C91.5566 23.4707 91.6387 23.3164 91.6387 23.1328C91.6387 22.9492 91.5566 22.7949 91.3926 22.6699C91.2285 22.5449 90.9805 22.4531 90.6484 22.3945C90.3203 22.332 89.914 22.3008 89.4297 22.3008Z" fill="#FAFAF5"/>
</svg>
