<svg xmlns="http://www.w3.org/2000/svg" width="14" height="12" viewBox="0 0 14 12" fill="none">
  <g clip-path="url(#clip0_50_19612)">
    <path d="M11.0864 11.3334C11.0207 11.3337 10.9556 11.3209 10.8949 11.2957C10.8342 11.2706 10.7792 11.2335 10.733 11.1868L1.06637 1.5201C1.01724 1.47433 0.977839 1.41913 0.950511 1.35779C0.923183 1.29646 0.908489 1.23025 0.907304 1.16312C0.90612 1.09598 0.91847 1.0293 0.943617 0.967037C0.968764 0.904779 1.00619 0.848223 1.05367 0.800743C1.10115 0.753264 1.15771 0.715835 1.21997 0.690687C1.28223 0.66554 1.34891 0.65319 1.41605 0.654375C1.48318 0.655559 1.54939 0.670254 1.61072 0.697582C1.67206 0.72491 1.72726 0.764311 1.77303 0.813436L11.4397 10.4801C11.4869 10.5261 11.5244 10.581 11.55 10.6417C11.5756 10.7024 11.5887 10.7676 11.5887 10.8334C11.5887 10.8993 11.5756 10.9645 11.55 11.0252C11.5244 11.0859 11.4869 11.1408 11.4397 11.1868C11.3943 11.2345 11.3394 11.2721 11.2785 11.2974C11.2177 11.3226 11.1522 11.3349 11.0864 11.3334Z" fill="#505458"/>
    <path d="M9.28005 8.32516C8.56759 8.66663 7.78999 8.8508 7.00005 8.86516C4.46005 8.86516 2.24005 6.68516 1.50005 5.86516C2.34792 4.91585 3.35674 4.12369 4.48005 3.52516L3.74005 2.78516C2.48099 3.50186 1.36279 4.4416 0.440049 5.55849C0.371934 5.6462 0.334961 5.7541 0.334961 5.86516C0.334961 5.97621 0.371934 6.08411 0.440049 6.17182C0.560049 6.32516 3.39338 9.86516 7.00005 9.86516C8.05759 9.84456 9.09505 9.57263 10.0267 9.07182L9.28005 8.32516Z" fill="#505458"/>
    <path d="M13.5592 5.55857C13.4392 5.40523 10.6059 1.86523 6.99922 1.86523C6.21007 1.8752 5.42984 2.03351 4.69922 2.3319L5.49922 3.1119C5.98783 2.95173 6.49837 2.86852 7.01255 2.86523C9.55255 2.86523 11.7726 5.04523 12.5192 5.86523C11.8261 6.62103 11.0346 7.28027 10.1659 7.82523L10.9192 8.5319C11.9188 7.87211 12.8171 7.07038 13.5859 6.1519C13.6454 6.06314 13.675 5.95763 13.6702 5.85085C13.6654 5.74406 13.6265 5.64163 13.5592 5.55857Z" fill="#505458"/>
    <path d="M7.95966 7.00589C7.69247 7.23592 7.35223 7.36352 6.99966 7.36589C6.60184 7.36589 6.22031 7.20785 5.939 6.92655C5.6577 6.64524 5.49966 6.26371 5.49966 5.86589C5.50203 5.51332 5.62962 5.17307 5.85966 4.90589L5.15299 4.19922C4.72934 4.65133 4.49134 5.24632 4.48633 5.86589C4.48633 6.52893 4.74972 7.16481 5.21856 7.63365C5.6874 8.10249 6.32329 8.36589 6.98633 8.36589C7.60589 8.36087 8.20088 8.12287 8.65299 7.69922L7.95966 7.00589Z" fill="#505458"/>
    <path d="M6.76013 4.3919C6.84 4.38534 6.92026 4.38534 7.00013 4.3919C7.39338 4.39184 7.77092 4.54621 8.05147 4.82177C8.33202 5.09733 8.49314 5.47205 8.50013 5.86523C8.50669 5.9451 8.50669 6.02537 8.50013 6.10523L9.29346 6.89857C9.43659 6.57322 9.50712 6.2206 9.50013 5.86523C9.50013 5.20219 9.23674 4.56631 8.7679 4.09747C8.29906 3.62863 7.66317 3.36523 7.00013 3.36523C6.64278 3.36662 6.29007 3.44626 5.9668 3.59857L6.76013 4.3919Z" fill="#505458"/>
  </g>
  <defs>
    <clipPath id="clip0_50_19612">
      <rect width="13.3333" height="10.6667" fill="white" transform="translate(0.333008 0.666016)"/>
    </clipPath>
  </defs>
</svg>