<svg xmlns="http://www.w3.org/2000/svg" width="14" height="8" viewBox="0 0 14 8" fill="none">
  <g clip-path="url(#clip0_50_19608)">
    <path fill-rule="evenodd" clip-rule="evenodd" d="M1.49218 4C1.54693 4.06059 1.60963 4.1285 1.67984 4.20235C1.97943 4.51744 2.41295 4.93747 2.94738 5.35655C4.02876 6.20453 5.46122 7 6.99967 7C8.53813 7 9.97059 6.20453 11.052 5.35655C11.5864 4.93747 12.0199 4.51744 12.3195 4.20235C12.3897 4.1285 12.4524 4.06059 12.5072 4C12.4524 3.93942 12.3897 3.8715 12.3195 3.79765C12.0199 3.48256 11.5864 3.06253 11.052 2.64345C9.97059 1.79547 8.53813 1 6.99967 1C5.46122 1 4.02876 1.79547 2.94738 2.64345C2.41295 3.06253 1.97943 3.48256 1.67984 3.79765C1.60963 3.8715 1.54693 3.93942 1.49218 4ZM13.1663 4C13.559 3.6904 13.5589 3.69027 13.5587 3.69013L13.5585 3.68977L13.5577 3.68883L13.5555 3.686L13.5479 3.6766C13.5416 3.6687 13.5326 3.65757 13.521 3.64342C13.4977 3.61513 13.4641 3.57475 13.4205 3.52401C13.3335 3.42257 13.2067 3.27947 13.0442 3.1086C12.7198 2.76744 12.2504 2.31247 11.669 1.85655C10.5188 0.954531 8.86788 0 6.99967 0C5.13146 0 3.48059 0.954531 2.33031 1.85655C1.7489 2.31247 1.2795 2.76744 0.955131 3.1086C0.792668 3.27947 0.66585 3.42257 0.578806 3.52401C0.535265 3.57475 0.501623 3.61513 0.478394 3.64342C0.466778 3.65757 0.457761 3.6687 0.451408 3.6766L0.443881 3.686L0.44163 3.68883L0.440885 3.68977L0.440608 3.69013C0.440496 3.69027 0.440394 3.6904 0.833008 4L0.440394 3.6904C0.297212 3.87197 0.297212 4.12803 0.440394 4.3096L0.833008 4C0.440394 4.3096 0.440496 4.30973 0.440608 4.30987L0.440885 4.31023L0.44163 4.31117L0.443881 4.314L0.451408 4.3234C0.457761 4.3313 0.466778 4.34243 0.478394 4.35658C0.501623 4.38487 0.535265 4.42525 0.578806 4.47599C0.66585 4.57743 0.792668 4.72053 0.955131 4.8914C1.2795 5.23256 1.7489 5.68753 2.33031 6.14346C3.48059 7.04547 5.13146 8 6.99967 8C8.86788 8 10.5188 7.04547 11.669 6.14346C12.2504 5.68753 12.7198 5.23256 13.0442 4.8914C13.2067 4.72053 13.3335 4.57743 13.4205 4.47599C13.4641 4.42525 13.4977 4.38487 13.521 4.35658C13.5326 4.34243 13.5416 4.3313 13.5479 4.3234L13.5555 4.314L13.5577 4.31117L13.5585 4.31023L13.5587 4.30987C13.5589 4.30973 13.559 4.3096 13.1663 4ZM13.1663 4L13.559 4.3096C13.7021 4.12803 13.7021 3.87197 13.559 3.6904L13.1663 4Z" fill="#505458"/>
    <path fill-rule="evenodd" clip-rule="evenodd" d="M7 2.5C6.17157 2.5 5.5 3.17157 5.5 4C5.5 4.82843 6.17157 5.5 7 5.5C7.82843 5.5 8.5 4.82843 8.5 4C8.5 3.17157 7.82843 2.5 7 2.5ZM4.5 4C4.5 2.61929 5.61929 1.5 7 1.5C8.38071 1.5 9.5 2.61929 9.5 4C9.5 5.38071 8.38071 6.5 7 6.5C5.61929 6.5 4.5 5.38071 4.5 4Z" fill="#505458"/>
  </g>
  <defs>
    <clipPath id="clip0_50_19608">
      <rect width="13.3333" height="8" fill="white" transform="translate(0.333008)"/>
    </clipPath>
  </defs>
</svg>