<svg xmlns="http://www.w3.org/2000/svg" width="26" height="27" viewBox="0 0 26 27" fill="none">
  <path fill-rule="evenodd" clip-rule="evenodd" d="M8.6665 14.7641L22.1508 13.4999L8.6665 12.2358V6.75274C8.6665 6.6761 8.68277 6.60034 8.71421 6.53046C8.83698 6.25765 9.15765 6.13602 9.43045 6.25878L24.4242 13.006C24.5449 13.0603 24.6415 13.1569 24.6959 13.2776C24.8186 13.5504 24.697 13.8711 24.4242 13.9939L9.43045 20.7411C9.36057 20.7725 9.2848 20.7888 9.20817 20.7888C8.90902 20.7888 8.6665 20.5463 8.6665 20.2471V14.7641Z" fill="current"/>
  <path opacity="0.3" fill-rule="evenodd" clip-rule="evenodd" d="M4.33333 17.8333H5.41667C6.01498 17.8333 6.5 18.3184 6.5 18.9167C6.5 19.515 6.01498 20 5.41667 20H4.33333C3.73502 20 3.25 19.515 3.25 18.9167C3.25 18.3184 3.73502 17.8333 4.33333 17.8333ZM1.08333 12.4167H5.41667C6.01498 12.4167 6.5 12.9017 6.5 13.5C6.5 14.0983 6.01498 14.5833 5.41667 14.5833H1.08333C0.485025 14.5833 0 14.0983 0 13.5C0 12.9017 0.485025 12.4167 1.08333 12.4167ZM4.33333 7H5.41667C6.01498 7 6.5 7.48502 6.5 8.08333C6.5 8.68164 6.01498 9.16667 5.41667 9.16667H4.33333C3.73502 9.16667 3.25 8.68164 3.25 8.08333C3.25 7.48502 3.73502 7 4.33333 7Z" fill="current"/>
</svg>